<svg xmlns="http://www.w3.org/2000/svg" xmlns:xlink="http://www.w3.org/1999/xlink" viewBox="0 0 512 512"><defs><style>.cls-1,.cls-2{fill:none;}.cls-1{clip-rule:evenodd;}.cls-3{fill:#0096fa;fill-rule:evenodd;}.cls-4{clip-path:url(#clip-path);}.cls-5{clip-path:url(#clip-path-2);}.cls-6{fill:#fff;}</style><clipPath id="clip-path"><path class="cls-1" d="M387.07,136.41C358.47,111.42,318.43,97,271.89,97,150.6,97,68.11,190.64,68.11,190.64l23.24,36.9s12.87,1.08,6.05-20.66c5.88-11.11,17.39-26.07,39.87-43.34V409.4c-9.69,2.73-22.49,7.86-13.77,16.6h66.79c8.81-8.82-5.08-14.13-13.54-16.6v-58s45.79,18,95.14,18c43.37,0,82.83-12.9,112.18-36.22s48.26-57.78,48.15-97.35a130.53,130.53,0,0,0-45.15-99.39m-119.25,210c-38,0-69.95-7.33-91.07-17.74V144.27c23.16-16.47,60.73-26.61,91.07-26.55,36.86,0,65.8,14,85.36,35.1s30.21,49.52,30.31,82.36c-.12,32-11.52,58.35-31.82,78.57C331.38,333.8,301.87,346.47,267.82,346.44Z"/></clipPath><clipPath id="clip-path-2"><rect class="cls-2" width="512" height="512"/></clipPath></defs><g id="Layer_2" data-name="Layer 2"><g id="レイヤー_1" data-name="レイヤー 1"><path class="cls-3" d="M512,105.39C512,47.42,464.57,0,406.61,0H105.39C47.42,0,0,47.42,0,105.39V406.61C0,464.57,47.42,512,105.39,512H406.61c58,0,105.39-47.43,105.39-105.39C511.7,435.51,512,105.39,512,105.39Z"/><g id="p"><g class="cls-4"><g class="cls-5"><rect class="cls-6" x="63.11" y="92" width="374.11" height="339"/></g></g></g></g></g></svg>